<svg xmlns="http://www.w3.org/2000/svg" viewBox="0 0 363.25 248.74"><path fill="#8a490c" stroke="#fff" stroke-miterlimit="10" stroke-width="3.5" d="M282.04 119.9c.98-.8 2-1.54 3.08-2.14-.38.42-.88.77-1.37 1.12-.56.38-1.16.7-1.71 1.02ZM316.97 144.85c0 2.48-.25 4.9-.7 7.17v-9.87c0-.88.11-1.71.32-2.55.25 1.68.38 3.46.38 5.25Z"/><path fill="#0c718a" d="M47.68 144.6c0 6.02.97 11.2 2.91 15.54s4.5 7.57 7.67 9.68 6.59 3.16 10.25 3.16c3.99 0 7.66-1.05 10.99-3.16s6.02-5.32 8.04-9.64 3.04-9.65 3.04-16c0-4.48-.59-8.53-1.76-12.14s-2.78-6.6-4.8-8.98-4.35-4.16-6.97-5.33-5.41-1.76-8.37-1.76c-6.02 0-11.02 2.49-15.01 7.46s-5.99 12.03-5.99 21.16Zm43.89 63.98V177c-4.32 4.32-8.82 7.62-13.49 9.88s-9.86 3.4-15.54 3.4c-6.95 0-13.28-1.83-18.99-5.5s-10.2-8.93-13.45-15.79-4.88-14.94-4.88-24.24 1.64-17.68 4.92-24.49 7.83-11.99 13.66-15.54 12.29-5.33 19.4-5.33c6.02 0 11.4 1.24 16.16 3.73s8.83 6.28 12.22 11.36v-2.71c0-4.1.98-7.22 2.95-9.35s4.51-3.2 7.63-3.2 5.66 1.05 7.63 3.16 2.95 5.24 2.95 9.39v96.8c0 9.95-3.53 14.93-10.58 14.93-4.38 0-7.23-1.34-8.57-4.02s-2.01-6.32-2.01-10.91ZM179.77 144.76c0-9.13-2.01-16.24-6.03-21.33s-9.42-7.63-16.2-7.63c-4.38 0-8.23 1.13-11.57 3.4s-5.91 5.62-7.71 10.05-2.71 9.6-2.71 15.5.89 10.96 2.67 15.34 4.32 7.72 7.63 10.05 7.21 3.49 11.69 3.49c6.78 0 12.18-2.56 16.2-7.67s6.03-12.18 6.03-21.21Zm22.48 0c0 6.67-1.04 12.82-3.12 18.46s-5.09 10.47-9.02 14.52-8.64 7.15-14.11 9.31-11.62 3.24-18.46 3.24-12.88-1.09-18.29-3.28-10.1-5.32-14.07-9.39-6.97-8.89-9.02-14.44-3.08-11.69-3.08-18.42 1.04-12.99 3.12-18.62 5.06-10.45 8.94-14.44 8.59-7.07 14.11-9.23 11.62-3.24 18.29-3.24 12.93 1.09 18.46 3.28 10.25 5.3 14.19 9.35 6.93 8.86 8.98 14.44 3.08 11.73 3.08 18.46ZM285.12 117.76c2.8-1.57 5.88-2.45 9.1-2.45 11.17 0 20.16 10.46 22.05 24.29v36.33c-2.8 3.11-5.56 5.7-8.29 7.73-2.94 2.17-6.09 3.82-9.52 4.94-3.43 1.12-7.14 1.68-11.2 1.68-5.35 0-10.33-1.15-14.88-3.4-4.58-2.27-8.54-5.53-11.87-9.73-3.32-4.2-5.88-9.17-7.59-14.84-1.71-5.71-2.59-11.87-2.59-18.48 0-10.04 1.75-18.48 5.29-25.34-4.52 0-8.16.88-11.03 2.59-2.87 1.71-7.42 5.21-9.42 8.08-2.17 3.08-3.43 7-4.02 11.69-.6 4.65-.91 10.36-.91 17.08v18.72c0 4.52.25 9.45-2.66 11.72-2.94 2.24-6.05 2.24-12.92 2.24-4.41 0-5.78-.35-8.71-2.52-2.87-2.28-3.04-6.96-3.04-11.45V114.3c0-10.08 5-15.12 15.05-15.12 5.11 0 8.79 1.19 11.06 3.54 2.24 2.35 3.5 5.81 3.71 10.43 3.71-4.62 7.49-8.08 11.38-10.43 3.89-2.35 9.03-3.54 15.54-3.54 5.15 0 10.15.74 15.05 2.24 1.26.38 2.52.8 3.78 1.29 6.12 2.35 9.17 5.46 9.17 9.35 0 2.2-.84 4.09-2.52 5.67Z"/><path fill="#0c718a" stroke="#fff" stroke-miterlimit="10" stroke-width="3.5" d="M329.57 190.09c2.1-.35 3.85-1.29 5.29-2.8-1.44 1.37-3.25 2.38-5.29 2.8Z"/><path fill="#8a490c" stroke="#fff" stroke-miterlimit="10" stroke-width="4" d="M334.92 28.3a10.632 10.632 0 0 0-7.49-3.08c-5.84 0-10.57 4.73-10.57 10.57v77.14c-4.2-4.62-8.54-8.02-12.95-10.22-4.45-2.21-9.87-3.33-16.34-3.33-4.69 0-9 .7-12.88 2.07 1.26.38 2.52.8 3.78 1.29 6.12 2.35 9.17 5.46 9.17 9.35 0 2.2-.84 4.09-2.52 5.67 2.8-1.57 5.88-2.45 9.1-2.45 11.17 0 20.02 10.46 21.91 24.29.14.72.14 1.68.14 2.55V177.48c0 3.79 1.36 7.29 3.61 9.47.78.76 1.54 1.47 2.38 2 .35.18.7.35 1.05.49.63.28 1.29.49 1.96.63h.04c.7.14 1.4.21 2.13.21s1.44-.07 2.14-.21c2.03-.42 3.85-1.44 5.29-2.8.14-.14.24-.25.35-.39.21-.21.38-.42.56-.66.74-1.02 1.29-2.21 1.68-3.64.38-1.47.59-3.18.59-5.11V35.79c0-2.94-1.19-5.56-3.12-7.49Z"/><ellipse cx="271.96" cy="109.12" fill="#0c718a" rx="8.26" ry="14.59" transform="rotate(-74.24 271.942 109.133)"/><path fill="none" stroke="#8a490c" stroke-miterlimit="10" stroke-width="4" d="M361.04 35.79v141.7c0 .5-.01 1.02-.02 1.51-.11 3.24-.54 6.36-1.29 9.27l-.08.32c-1.11 4.09-2.87 7.82-5.23 11.1-.24.33-.48.65-.73.96-.44.56-.89 1.09-1.36 1.61-.3.34-.58.63-.82.89-.16.15-.29.29-.42.41l-.38.37c-4.61 4.39-10.31 7.39-16.48 8.66l-.16.03c-.24.05-.47.08-.71.13-2.93.61-6.49.78-9.71.42l-.74-.1-2.37-.49c-2.12-.45-4.2-1.1-6.17-1.95-.86-.36-1.72-.76-2.66-1.24l-1.32-.74c-1.57.68-3.17 1.28-4.8 1.81-5.71 1.87-11.88 2.82-18.33 2.82-8.86 0-17.28-1.94-25.04-5.75l-.09-.05a56.96 56.96 0 0 1-13.26-9.14c-1.67 2.9-3.97 5.71-7.14 8.18l-.21.16c-9.12 6.95-18.13 6.95-26.85 6.95-7.95 0-14.46-1.17-22.38-7.02l-.61-.46c-.27-.21-.53-.43-.79-.66-2.07 1.1-4.22 2.08-6.44 2.96-8.15 3.22-17.2 4.85-26.91 4.85-7.73 0-15.04-1.06-21.82-3.16-.65 25.11-17.18 36.38-33.56 36.38-18.76 0-26.64-11.7-29.15-16.73-2.44-4.89-3.86-10.41-4.29-16.79-2.04.2-4.1.3-6.19.3-11.36 0-21.92-3.07-31.38-9.13-9.37-6-16.71-14.51-21.83-25.29-4.72-9.96-7.11-21.43-7.11-34.11s2.42-24.55 7.2-34.47c5.22-10.83 12.76-19.31 22.4-25.2 9.44-5.77 20-8.7 31.38-8.7 7.92 0 15.37 1.42 22.22 4.22 4.99-2.86 10.71-4.38 16.75-4.38 8.23 0 15.86 2.8 21.84 7.97 2.2-1.17 4.49-2.22 6.87-3.15 8.17-3.2 17.15-4.82 26.67-4.82s18.75 1.65 26.94 4.9c2.75 1.09 5.38 2.34 7.9 3.75 6.52-5.54 15.28-8.68 25.58-8.68 8.13 0 14.41 1.84 19.16 4.31 6.51-2.86 14.06-4.31 22.52-4.31 5.01 0 10 .5 14.85 1.49 4.19-.87 8.57-1.31 13.08-1.31 2.15 0 4.25.09 6.3.27V35.79c0-18.51 15.06-33.57 33.57-33.57 8.86 0 17.23 3.43 23.58 9.65l.21.21c6.33 6.35 9.81 14.77 9.81 23.71Z"/></svg>