<svg xmlns="http://www.w3.org/2000/svg" width="200" height="200"><defs><clipPath id="a"><circle cx="100" cy="100" r="100" fill="none" stroke-width="0"/></clipPath></defs><g clip-path="url(#a)"><path fill="#1ed760" d="M105.14 200.75H93.12c-3.35-1.36-6.97-1.17-10.45-1.73-41.31-6.65-75.49-40.84-82.19-82.19-.56-3.48-.35-7.1-1.73-10.44v-.6c.73-3.61.58-7.21 0-10.82v-1.2c.94-.5.55-1.41.62-2.14 2.49-26.92 13.74-49.49 33.95-67.41C50.52 8.97 70.84.94 93.71-.75h12.02c.3.05.59.12.89.14 28.11 2.22 51.46 13.98 69.82 35.34 14.56 16.94 22.19 36.81 23.83 59.04.31 4-.53 8.04.43 12.02v.6c-1.41 3.34-1.18 6.96-1.74 10.44-6.66 41.32-40.83 75.51-82.14 82.19-3.89.63-7.88.54-11.68 1.74ZM88.28 52.34c-20.08-.01-38.34 2.34-50.64 6.11-5.7 1.75-8.62 6.74-7.03 12.01 1.54 5.1 6.63 7.65 12.27 6.08 11.14-3.11 22.51-4.77 34.06-5.1 29.01-.83 57.11 2.7 82.97 17.21 4.34 2.44 9.8.58 12.28-3.63 2.55-4.33 1.28-9.89-3.07-12.66-3.8-2.42-7.84-4.41-11.97-6.21-22.97-10-47.19-13.47-68.86-13.81Zm-5.91 50.4c21.71.08 44.31 4.51 65.02 16.7 4.07 2.39 8.74 1.05 10.93-2.78 2.13-3.73.98-8.22-2.98-10.67a97.725 97.725 0 0 0-9.21-5.03c-23.19-11.13-47.75-15.03-73.26-13.6-10.01.56-19.87 2.28-29.5 5.16-3.24.97-5.53 2.82-6.16 6.24-1.08 5.84 3.9 10.57 9.69 8.97 10.97-3.02 22.11-4.67 35.47-4.97Zm64.36 38.43c.07-2.84-1.46-4.61-3.77-5.99-7.86-4.67-16.17-8.29-24.96-10.77-23.72-6.69-47.47-5.39-71.2-.07-4.16.93-6.15 3.79-5.41 7.56.7 3.56 3.88 5.45 8.07 4.61 7.06-1.41 14.13-2.72 21.3-3.41 17.44-1.66 34.54-.36 51.1 5.8 5.35 1.99 10.38 4.65 15.36 7.41 4.49 2.48 9.44-.28 9.52-5.14Z"/></g></svg>