<svg xmlns="http://www.w3.org/2000/svg" width="200" height="200"><circle cx="100" cy="100" r="100" fill="gray"/><path fill="#fff" d="M152.09 88.97a30.313 30.313 0 0 0-2.6-24.89c-6.64-11.55-19.98-17.5-33-14.7a30.319 30.319 0 0 0-22.85-10.19A30.645 30.645 0 0 0 64.41 60.4a30.315 30.315 0 0 0-20.26 14.7c-6.69 11.52-5.16 26.05 3.77 35.93a30.313 30.313 0 0 0 2.6 24.89c6.64 11.55 19.98 17.5 33 14.7a30.303 30.303 0 0 0 22.85 10.19c13.32.03 25.14-8.55 29.24-21.23a30.315 30.315 0 0 0 20.26-14.7c6.68-11.52 5.15-26.04-3.78-35.92Zm-45.71 63.89c-5.33 0-10.5-1.86-14.59-5.28.19-.1.51-.28.72-.41l24.22-13.99c1.24-.7 2-2.02 1.99-3.45V95.59l10.23 5.91c.11.05.18.16.2.28v28.27c-.02 12.57-10.2 22.76-22.77 22.79Zm-48.97-20.91a22.732 22.732 0 0 1-2.72-15.27c.18.11.49.3.72.43l24.22 13.99c1.23.72 2.75.72 3.98 0l29.56-17.07v11.82c0 .12-.05.24-.14.32L88.55 140.3c-10.9 6.28-24.83 2.55-31.13-8.34Zm-6.37-52.86c2.66-4.62 6.86-8.16 11.86-9.99 0 .21-.01.58-.01.84v27.98c0 1.42.75 2.74 1.99 3.44l29.56 17.07-10.23 5.91c-.1.07-.23.08-.35.03l-24.48-14.15C48.5 103.92 44.77 90 51.04 79.1Zm84.09 19.57-29.56-17.07 10.23-5.91c.1-.07.23-.08.35-.03l24.48 14.13c10.9 6.3 14.64 20.24 8.34 31.14a22.785 22.785 0 0 1-11.86 9.99V102.1a3.91 3.91 0 0 0-1.98-3.44Zm10.19-15.33c-.18-.11-.49-.3-.72-.43l-24.22-13.99a3.937 3.937 0 0 0-3.98 0L86.84 85.98V74.16c0-.12.05-.24.14-.32l24.48-14.12c10.9-6.29 24.84-2.55 31.13 8.36 2.66 4.61 3.62 10 2.72 15.24ZM81.28 104.4l-10.24-5.91a.368.368 0 0 1-.2-.28V69.94c0-12.59 10.22-22.79 22.81-22.78 5.32 0 10.48 1.87 14.57 5.28-.19.1-.51.28-.72.41L83.28 66.84c-1.24.7-2 2.02-1.99 3.44l-.02 34.12Zm5.56-11.99 13.17-7.6 13.17 7.6v15.21l-13.17 7.6-13.17-7.6v-15.2Z"/></svg>