<svg xmlns="http://www.w3.org/2000/svg" width="200" height="200"><circle cx="100" cy="100" r="95" fill="#fff"/><path d="M100 10c49.63 0 90 40.37 90 90s-40.37 90-90 90-90-40.37-90-90 40.37-90 90-90m0-10C44.77 0 0 44.77 0 100s44.77 100 100 100 100-44.77 100-100S155.23 0 100 0Z"/><path d="M36.95 99.78c0-7.33.03-14.65-.03-21.98 0-1.19.24-1.56 1.51-1.55 12.91.05 25.82.03 38.73.03 3.99 0 5.97 1.75 6.47 5.71.06.49.06.98.06 1.47 0 12.83-.01 25.67.03 38.5 0 1.11-.2 1.53-1.43 1.49-2.85-.1-5.72-.1-8.57 0-1.2.04-1.56-.23-1.55-1.5.06-10.72 0-21.44.06-32.16 0-1.27-.25-1.74-1.59-1.61-1.27.13-2.57.13-3.84 0-1.3-.13-1.49.39-1.49 1.56.05 10.62 0 21.24.06 31.87 0 1.47-.31 1.94-1.83 1.85-2.41-.15-4.83-.1-7.24-.01-1.06.04-1.28-.3-1.28-1.31.04-10.77 0-21.54.06-32.31 0-1.41-.43-1.74-1.72-1.63-1.17.1-2.37.11-3.54 0-1.16-.11-1.35.34-1.35 1.39.04 10.67 0 21.34.06 32.01 0 1.44-.26 1.95-1.82 1.86-2.85-.15-5.71-.09-8.57-.02-.99.02-1.22-.29-1.22-1.24.04-7.47.02-14.95.02-22.42ZM146.07 100.3V117.56c-.09 4.18-1.65 5.82-5.86 5.85-7.34.06-14.68.02-22.02.02-3.55 0-7.09-.02-10.64.02-.89.01-1.3-.11-1.29-1.17.04-9.19.04-18.39 0-27.58 0-.96.32-1.14 1.19-1.12 3.15.05 6.31.06 9.46 0 1-.02 1.2.31 1.19 1.23-.04 5.21 0 10.42-.04 15.63-.01 1.09.17 1.53 1.42 1.5 4.68-.08 9.36-.06 14.04-.01.9 0 1.18-.21 1.17-1.14-.04-7.57-.04-15.14 0-22.71 0-1.08-.44-1.15-1.3-1.15-8.52.02-17.05 0-25.57.04-1.18 0-1.62-.22-1.57-1.5.11-2.7.06-5.41.01-8.11-.01-.84.24-1.08 1.08-1.08 11.04.03 22.07 0 33.11.03 2.83 0 4.79 1.72 5.35 4.55.18.91.25 1.85.26 2.78.02 5.56.01 11.11.01 16.67ZM100.89 100c0 7.37-.02 14.75.02 22.12 0 .98-.18 1.36-1.26 1.33-3-.08-6.01-.06-9.01-.01-.9.01-1.28-.13-1.28-1.17.04-14.94.04-29.89 0-44.83 0-1.05.4-1.18 1.28-1.17 3 .04 6.01.07 9.01-.01 1.09-.03 1.26.36 1.26 1.33-.04 7.47-.02 14.94-.02 22.42ZM151.42 99.71c0-7.32.03-14.64-.03-21.96-.01-1.27.36-1.53 1.56-1.49 2.95.09 5.91.06 8.86.01.9-.01 1.27.15 1.27 1.18-.04 14.94-.04 29.87 0 44.81 0 1.02-.35 1.2-1.26 1.19-3.05-.05-6.11-.07-9.16 0-1.1.03-1.26-.37-1.25-1.34.04-7.47.02-14.94.02-22.4Z"/></svg>